<?xml version="1.0" standalone="no"?>
<!DOCTYPE svg PUBLIC "-//W3C//DTD SVG 20010904//EN"
 "http://www.w3.org/TR/2001/REC-SVG-20010904/DTD/svg10.dtd">
<svg version="1.0" xmlns="http://www.w3.org/2000/svg"
 width="1024.000000pt" height="1024.000000pt" viewBox="0 0 1024.000000 1024.000000"
 preserveAspectRatio="xMidYMid meet">
<metadata>
Created by potrace 1.14, written by Peter Selinger 2001-2017
</metadata>
<g transform="translate(0.000000,1024.000000) scale(0.100000,-0.100000)"
fill="#000000" stroke="none">
<path d="M2560 9920 l0 -320 -640 0 -640 0 0 -320 0 -320 -320 0 -320 0 0
-320 0 -320 -320 0 -320 0 0 -320 0 -320 640 0 640 0 0 -320 0 -320 320 0 320
0 0 -640 0 -640 -640 0 -640 0 0 320 0 320 -320 0 -320 0 0 -960 0 -960 320 0
320 0 0 -1280 0 -1280 320 0 320 0 0 -640 0 -640 320 0 320 0 0 -320 0 -320
1280 0 1280 0 0 320 0 320 320 0 320 0 0 320 0 320 320 0 320 0 0 -640 0 -640
1280 0 1280 0 0 640 0 640 -320 0 -320 0 0 320 0 320 320 0 320 0 0 320 0 320
640 0 640 0 0 640 0 640 320 0 320 0 0 2240 0 2240 -320 0 -320 0 0 960 0 960
-640 0 -640 0 0 -320 0 -320 -320 0 -320 0 0 320 0 320 -2560 0 -2560 0 0
-320z m6400 -640 l0 -320 -320 0 -320 0 0 320 0 320 320 0 320 0 0 -320z m0
-1280 l0 -320 320 0 320 0 0 -960 0 -960 -320 0 -320 0 0 320 0 320 -1280 0
-1280 0 0 -320 0 -320 -640 0 -640 0 0 -320 0 -320 -320 0 -320 0 0 960 0 960
320 0 320 0 0 320 0 320 640 0 640 0 0 320 0 320 1280 0 1280 0 0 -320z
m-5760 -1920 l0 -320 -320 0 -320 0 0 320 0 320 320 0 320 0 0 -320z m1920
-2880 l0 -640 320 0 320 0 0 320 0 320 960 0 960 0 0 -320 0 -320 -320 0 -320
0 0 -320 0 -320 -1280 0 -1280 0 0 960 0 960 320 0 320 0 0 -640z"/>
</g>
</svg>
